PathFileType	4	TRC_standard.trc
DataRate	CameraRate	NumFrames	NumMarkers	Units	OrigDataRate	OrigDataStartFrame	OrigNumFrames
100.0	100.0	10	37	mm	100.0	838	2234	
Frame#	Time	T10			C7			CLAV			RACR1			LACR1			RPSI			LPSI			RASI			LASI			LTH2			LTH3			LTH1			RTH2			RTH3			RTH1			RLFC			RMFC			RTB1			RTB3			RTB2			LLFC			LMFC			LTB1			LTB3			LTB2			LLMAL			LCAL			LMMAL			RLMAL			RMMAL			RCAL			RMT5			RMT1			RToe			LMT5			LMT1			LToe			
		X1	Y1	Z1	X2	Y2	Z2	X3	Y3	Z3	X4	Y4	Z4	X5	Y5	Z5	X6	Y6	Z6	X7	Y7	Z7	X8	Y8	Z8	X9	Y9	Z9	X10	Y10	Z10	X11	Y11	Z11	X12	Y12	Z12	X13	Y13	Z13	X14	Y14	Z14	X15	Y15	Z15	X16	Y16	Z16	X17	Y17	Z17	X18	Y18	Z18	X19	Y19	Z19	X20	Y20	Z20	X21	Y21	Z21	X22	Y22	Z22	X23	Y23	Z23	X24	Y24	Z24	X25	Y25	Z25	X26	Y26	Z26	X27	Y27	Z27	X28	Y28	Z28	X29	Y29	Z29	X30	Y30	Z30	X31	Y31	Z31	X32	Y32	Z32	X33	Y33	Z33	X34	Y34	Z34	X35	Y35	Z35	X36	Y36	Z36	X37	Y37	Z37	
838	8.37	716.47809	1242.5667	-612.05914	712.61395	1504.9316	-499.50531	724.5188	1351.2554	-397.4335	555.87085	1452.6764	-467.02097	892.01758	1450.6221	-489.36703	654.60132	1031.0563	-673.25122	742.77832	1031.3555	-674.20349	586.96893	999.14087	-437.64166	840.79974	995.9115	-443.24234	892.0907	717.84741	-471.63867	911.92432	783.90338	-507.90573	868.98608	865.48608	-454.21707	594.92749	724.10767	-414.38446	542.84338	787.57764	-448.65042	608.5744	840.7262	-411.1994	592.80835	506.19562	-473.53952				647.39325	397.80829	-441.14706	623.78168	318.27734	-462.90729	652.50458	268.2627	-459.88596	884.02515	506.9288	-531.3139				845.05872	389.05969	-554.15979	863.74951	357.68411	-623.09064	827.55756	308.79968	-646.17334	829.54913	214.45415	-831.32495				770.41986	228.29526	-885.85907	642.03772	77.944809	-521.8656				681.37164	37.699142	-588.92712	648.44067	44.388874	-412.71927	729.47961	47.735737	-390.33731				852.3819	91.344818	-811.44861	789.72888	72.382843	-778.2381			
839	8.38	715.53619	1243.0183	-612.3241	712.0542	1505.4353	-499.77112	724.39661	1351.814	-397.832	555.47064	1453.2836	-466.87503	891.60083	1451.1014	-490.44617	654.30072	1031.3724	-673.54724	742.45709	1031.4023	-674.46045	586.09631	999.59271	-437.94778	839.95428	996.66278	-443.25833	892.92566	719.90479	-466.11307	912.04132	785.35321	-504.34583	868.4837	867.16785	-452.85693	594.02393	723.12036	-417.25623	542.10907	787.1662	-450.80649	607.50208	839.9812	-412.45163	592.17596	505.72018	-479.13589				646.83466	397.19226	-447.4718	623.38745	317.77283	-469.72827	652.27374	267.80127	-467.03241	884.46777	507.88718	-521.72052				845.75433	389.91534	-542.82373	864.19305	357.94815	-611.59363	828.01135	308.82153	-633.97485	829.40918	212.70914	-818.42365				769.57452	223.74284	-873.32544	642.26111	78.021133	-530.15118				681.46869	37.792385	-597.25427	648.28931	44.431595	-421.03513	729.40338	47.747829	-398.4841				855.41949	92.355179	-793.96558	793.44324	72.573296	-759.63251			
840	8.39	714.6358	1243.3982	-612.68176	711.52808	1505.8704	-500.13577	724.3147	1352.303	-398.32788	555.1015	1453.8181	-466.83704	891.21899	1451.505	-491.64169	654.10187	1031.6128	-673.93347	742.23572	1031.4022	-674.78754	585.24921	999.96301	-438.36719	839.13586	997.35797	-443.32458	893.62396	721.96979	-460.78308	912.1723	786.78082	-500.87189	867.9884	868.79602	-451.57288	593.16998	722.11218	-420.20886	541.43005	786.71381	-453.05478	606.48065	839.19214	-413.80173	591.58063	505.24127	-484.7872				646.29352	396.57095	-453.84531	623.01404	317.27036	-476.60187	652.06122	267.33826	-474.23203	884.75714	508.94815	-512.28284				846.27002	390.86749	-531.42096	864.56018	358.11163	-599.8515	828.37561	308.69107	-621.40161	829.43573	210.16733	-804.71826				769.05457	218.13722	-860.03754	642.47748	78.091141	-538.46106				681.56	37.884396	-605.61145	648.15179	44.467762	-429.38315	729.31592	47.763779	-406.6824				858.42841	92.815636	-775.14551	797.09589	72.476868	-739.83344			
841	8.4	713.77899	1243.7041	-613.12762	711.03455	1506.2334	-500.59448	724.26813	1352.7211	-398.91489	554.76135	1454.2771	-466.90283	890.86951	1451.8317	-492.94266	654.00385	1031.7769	-674.40265	742.11383	1031.3542	-675.17786	584.43109	1000.2513	-438.89301	838.34698	997.99414	-443.43689	894.16028	724.01654	-455.6973	912.3045	788.15735	-497.5256	867.49866	870.36078	-450.36285	592.37183	721.0885	-423.22534	540.81183	786.22369	-455.37976	605.51569	838.36359	-415.23734	591.02649	504.76074	-490.47195				645.77441	395.9433	-460.24997	622.66321	316.76944	-483.51208	651.86804	266.87216	-481.47122	884.88788	510.09952	-503.04462				846.60339	391.91235	-519.99792	864.85193	358.17673	-587.9024	828.65698	308.41269	-608.49139	829.64722	206.85439	-790.21887				768.88892	211.54562	-845.97345	642.68146	78.153862	-546.78754				681.64062	37.977142	-613.99329	648.02692	44.496651	-437.75665	729.21893	47.780403	-414.92499				861.38153	92.746819	-755.09302	800.64917	72.115906	-718.97644			
842	8.41	712.96765	1243.9347	-613.65723	710.57233	1506.5227	-501.14178	724.25226	1353.0665	-399.58612	554.44843	1454.6581	-467.0672	890.54974	1452.0803	-494.33768	654.005	1031.8655	-674.94794	742.08972	1031.2572	-675.62512	583.64563	1000.4579	-439.51797	837.59009	998.56897	-443.59128	894.51581	726.02216	-450.88986	912.42859	789.45862	-494.33627	867.01379	871.85321	-449.22455	591.63464	720.05377	-426.28995	540.25916	785.69879	-457.76651	604.61212	837.49915	-416.74631	590.51666	504.27979	-496.17105				645.28113	395.30859	-466.6698	622.3363	316.26978	-490.44403	651.69458	266.40216	-488.73727	884.85791	511.32672	-494.04651				846.75476	393.04492	-508.60019	865.07062	358.14813	-575.78522	828.86267	307.99527	-595.28448	830.05573	202.81374	-774.94073				769.09338	204.05293	-831.11572	642.86859	78.208809	-555.12415				681.70642	38.072433	-622.39496	647.91272	44.51833	-446.14941	729.11346	47.795982	-423.2045				864.25928	92.190125	-733.92389	804.07458	71.524971	-697.19781			
843	8.42	712.20325	1244.089	-614.26569	710.14038	1506.7362	-501.77188	724.26245	1353.3386	-400.33453	554.16107	1454.9586	-467.32452	890.25739	1452.2504	-495.815	654.10217	1031.8792	-675.56201	742.16083	1031.1101	-676.12323	582.89673	1000.5832	-440.23425	836.86816	999.08051	-443.78409	894.67908	727.96686	-446.38071	912.53876	790.66785	-491.31921	866.53442	873.26483	-448.15527	590.96344	719.01141	-429.38861	539.77643	785.14111	-460.20129	603.77478	836.60187	-418.31735	590.05414	503.79926	-501.86771				644.81702	394.66614	-473.09036	622.03448	315.77106	-497.38428	651.54089	265.92734	-496.01855	884.66895	512.61346	-485.32617				846.72754	394.25949	-497.27188	865.21912	358.03284	-563.53851	829.00012	307.452	-581.82294	830.66632	198.10536	-758.90454				769.67102	195.75931	-815.45331	643.03503	78.256004	-563.46533				681.75439	38.172012	-630.81152	647.80707	44.533371	-454.55618	729.00012	47.809975	-431.51382				867.0495	91.20504	-711.76562	807.3526	70.749474	-674.63135			
844	8.43	711.4873	1244.1667	-614.94769	709.73779	1506.8726	-502.47812	724.29431	1353.5361	-401.15274	553.89783	1455.1772	-467.6683	889.99005	1452.3412	-497.36258	654.29126	1031.8186	-676.23822	742.32349	1030.9114	-676.66632	582.18805	1000.628	-441.03375	836.1842	999.52734	-444.01199	894.64569	729.83356	-442.17664	912.63074	791.77557	-488.47696	866.06146	874.58795	-447.15222	590.36237	717.96429	-432.50882	539.36737	784.55249	-462.67133	603.00806	835.67426	-419.93958	589.64117	503.31915	-507.54767				644.38477	394.01541	-479.49893	621.75824	315.27301	-504.32092	651.40649	265.44736	-503.30435	884.32605	513.94214	-476.91745				846.52728	395.5495	-486.0556	865.3006	357.84021	-551.20117	829.07635	306.80042	-568.1507	831.47693	192.80444	-742.13733				770.61157	186.77798	-798.98285	643.17822	78.295982	-571.80652				681.7821	38.277756	-639.23834	647.70715	44.542694	-462.97263	728.87964	47.822655	-439.84619				869.74579	89.865395	-688.75793	810.4707	69.844116	-651.40662			
845	8.44	710.82068	1244.1675	-615.69788	709.36359	1506.9305	-503.25381	724.34375	1353.6587	-402.03305	553.65729	1455.3131	-468.09167	889.74591	1452.3533	-498.96851	654.56763	1031.6847	-676.96979	742.57294	1030.6595	-677.24902	581.52393	1000.594	-441.90811	835.54132	999.90833	-444.27179	894.41827	731.60828	-438.27386	912.70142	792.77856	-485.80362	865.59698	875.81543	-446.21259	589.83508	716.91406	-435.6398	539.03516	783.93427	-465.16522	602.31549	834.7179	-421.60309	589.27905	502.8392	-513.19855				643.98657	393.35596	-485.88458	621.50775	314.77554	-511.24365	651.29065	264.96194	-510.58536	883.83765	515.29382	-468.85028				846.1618	396.9079	-474.99182	865.31866	357.58163	-538.81201	829.09772	306.06189	-554.31366	832.47833	186.99893	-724.67267				771.89368	177.23242	-781.71027	643.29633	78.329819	-580.1441				681.78796	38.391769	-647.67163	647.61053	44.54734	-471.39523	728.75214	47.834843	-448.19559				872.34589	88.255005	-665.05383	813.42169	68.87088	-627.64722			
846	8.45	710.20422	1244.0918	-616.51044	709.01697	1506.91	-504.09198	724.40735	1353.7057	-402.96783	553.43854	1455.3649	-468.58722	889.52307	1452.2865	-500.62091	654.92572	1031.478	-677.75018	742.90417	1030.353	-677.86627	580.9082	1000.4824	-442.84879	834.94281	1000.2227	-444.56073	894.00568	733.27869	-434.66122	912.74817	793.67529	-483.29123	865.14386	876.94141	-445.33356	589.3844	715.86218	-438.77234	538.78174	783.28729	-467.67255	601.7002	833.73413	-423.29886	588.96912	502.3588	-518.81042				643.62445	392.68762	-492.23816	621.2832	314.27859	-518.14349	651.19257	264.47122	-517.85327	883.21503	516.64929	-461.15045				845.64075	398.32684	-464.11877	865.27667	357.27014	-526.40979	829.06934	305.26077	-540.35895	833.65466	180.78723	-706.55121				773.48486	167.25368	-763.65179	643.388	78.359077	-588.47559				681.77081	38.516506	-656.10797	647.51465	44.548393	-479.82156	728.61792	47.847656	-456.55698				874.84973	86.462883	-640.82123	816.20068	67.89682	-603.47009			
847	8.46	709.63873	1243.9403	-617.37964	708.69751	1506.8109	-504.98517	724.48212	1353.6768	-403.94922	553.24072	1455.3325	-469.14731	889.32025	1452.1415	-502.30826	655.35962	1031.2003	-678.57318	743.31158	1029.9902	-678.51367	580.34454	1000.2955	-443.84705	834.39185	1000.47	-444.87616	893.42188	734.83417	-431.32306	912.7691	794.46484	-480.93237	864.70551	877.96039	-444.51254	589.01196	714.80933	-441.89899	538.60883	782.61212	-470.18436	601.16461	832.72375	-425.01886	588.71136	501.87708	-524.37506				643.29944	392.01016	-498.55222	621.08435	313.78217	-525.01318	651.11102	263.97556	-525.10071	882.47198	517.98907	-453.83929				844.97528	399.7981	-453.4725	865.17816	356.92004	-514.03339	828.995	304.42377	-526.33521	834.98334	174.27507	-687.82074				775.34497	156.97742	-744.83551	643.453	78.385849	-596.79901				681.72986	38.654896	-664.54449	647.41687	44.546867	-488.25009	728.47711	47.862255	-464.92618				877.25763	84.578445	-616.24396	818.80261	66.991653	-578.98566			
